<mxfile host="app.diagrams.net" modified="2023-06-21T11:38:40.429Z" agent="Mozilla/5.0 (Windows NT 10.0; Win64; x64) AppleWebKit/537.36 (KHTML, like Gecko) Chrome/114.0.0.0 Safari/537.36" etag="hXM1SB3zfVjW-p3QFGQK" version="21.5.0" type="device">
  <diagram name="Pagina-1" id="HB1ZQw7MN7rN6xosklbc">
    <mxGraphModel dx="1004" dy="643" grid="1" gridSize="10" guides="1" tooltips="1" connect="1" arrows="1" fold="1" page="1" pageScale="1" pageWidth="827" pageHeight="1169" math="0" shadow="0">
      <root>
        <mxCell id="0" />
        <mxCell id="1" parent="0" />
        <mxCell id="2vzTiyGk3TncGAkoDQ5b-1" value="" style="html=1;verticalLabelPosition=bottom;align=center;labelBackgroundColor=#ffffff;verticalAlign=top;strokeWidth=2;shadow=0;dashed=0;shape=mxgraph.ios7.icons.folder;strokeColor=#010203;" vertex="1" parent="1">
          <mxGeometry x="135" y="277.25" width="30" height="19.5" as="geometry" />
        </mxCell>
        <mxCell id="2vzTiyGk3TncGAkoDQ5b-3" value="src" style="text;html=1;align=center;verticalAlign=middle;resizable=0;points=[];autosize=1;strokeColor=none;fillColor=none;fontSize=14;" vertex="1" parent="1">
          <mxGeometry x="190" y="272" width="40" height="30" as="geometry" />
        </mxCell>
        <mxCell id="2vzTiyGk3TncGAkoDQ5b-6" value="" style="html=1;verticalLabelPosition=bottom;align=center;labelBackgroundColor=#ffffff;verticalAlign=top;strokeWidth=2;shadow=0;dashed=0;shape=mxgraph.ios7.icons.folder;strokeColor=#010203;" vertex="1" parent="1">
          <mxGeometry x="260" y="329.25" width="30" height="19.5" as="geometry" />
        </mxCell>
        <mxCell id="2vzTiyGk3TncGAkoDQ5b-8" value="java" style="text;html=1;align=left;verticalAlign=middle;resizable=0;points=[];autosize=1;strokeColor=none;fillColor=none;fontSize=14;" vertex="1" parent="1">
          <mxGeometry x="310" y="324" width="50" height="30" as="geometry" />
        </mxCell>
        <mxCell id="2vzTiyGk3TncGAkoDQ5b-11" value="" style="whiteSpace=wrap;html=1;shape=mxgraph.basic.document;strokeWidth=2;gradientColor=none;" vertex="1" parent="1">
          <mxGeometry x="400" y="420" width="22" height="25" as="geometry" />
        </mxCell>
        <mxCell id="2vzTiyGk3TncGAkoDQ5b-12" value="FileAnalyzer.class" style="text;html=1;align=left;verticalAlign=middle;resizable=0;points=[];autosize=1;strokeColor=none;fillColor=none;fontSize=14;" vertex="1" parent="1">
          <mxGeometry x="430" y="415" width="140" height="30" as="geometry" />
        </mxCell>
        <mxCell id="2vzTiyGk3TncGAkoDQ5b-14" value="" style="endArrow=none;html=1;rounded=0;strokeWidth=2;" edge="1" parent="1">
          <mxGeometry width="50" height="50" relative="1" as="geometry">
            <mxPoint x="250" y="339" as="sourcePoint" />
            <mxPoint x="150" y="310" as="targetPoint" />
            <Array as="points">
              <mxPoint x="150" y="338.75" />
            </Array>
          </mxGeometry>
        </mxCell>
        <mxCell id="2vzTiyGk3TncGAkoDQ5b-15" value="" style="endArrow=none;html=1;rounded=0;strokeWidth=2;" edge="1" parent="1">
          <mxGeometry width="50" height="50" relative="1" as="geometry">
            <mxPoint x="380" y="389" as="sourcePoint" />
            <mxPoint x="275" y="360" as="targetPoint" />
            <Array as="points">
              <mxPoint x="275" y="388.75" />
            </Array>
          </mxGeometry>
        </mxCell>
        <mxCell id="2vzTiyGk3TncGAkoDQ5b-18" value="" style="whiteSpace=wrap;html=1;shape=mxgraph.basic.document;strokeWidth=2;gradientColor=none;" vertex="1" parent="1">
          <mxGeometry x="400" y="375" width="22" height="25" as="geometry" />
        </mxCell>
        <mxCell id="2vzTiyGk3TncGAkoDQ5b-19" value="FileAnalyzer.java" style="text;html=1;align=left;verticalAlign=middle;resizable=0;points=[];autosize=1;strokeColor=none;fillColor=none;fontSize=14;" vertex="1" parent="1">
          <mxGeometry x="430" y="370" width="130" height="30" as="geometry" />
        </mxCell>
        <mxCell id="2vzTiyGk3TncGAkoDQ5b-24" value="" style="endArrow=none;html=1;rounded=0;strokeWidth=2;" edge="1" parent="1">
          <mxGeometry width="50" height="50" relative="1" as="geometry">
            <mxPoint x="380" y="430" as="sourcePoint" />
            <mxPoint x="275" y="389" as="targetPoint" />
            <Array as="points">
              <mxPoint x="275" y="430" />
            </Array>
          </mxGeometry>
        </mxCell>
        <mxCell id="2vzTiyGk3TncGAkoDQ5b-26" value="" style="html=1;verticalLabelPosition=bottom;align=center;labelBackgroundColor=#ffffff;verticalAlign=top;strokeWidth=2;shadow=0;dashed=0;shape=mxgraph.ios7.icons.folder;strokeColor=#010203;" vertex="1" parent="1">
          <mxGeometry x="260" y="465.25" width="30" height="19.5" as="geometry" />
        </mxCell>
        <mxCell id="2vzTiyGk3TncGAkoDQ5b-27" value="test&lt;span style=&quot;white-space: pre;&quot;&gt;&#x9;&lt;/span&gt;" style="text;html=1;align=left;verticalAlign=middle;resizable=0;points=[];autosize=1;strokeColor=none;fillColor=none;fontSize=14;" vertex="1" parent="1">
          <mxGeometry x="310" y="460" width="50" height="30" as="geometry" />
        </mxCell>
        <mxCell id="2vzTiyGk3TncGAkoDQ5b-28" value="" style="endArrow=none;html=1;rounded=0;strokeWidth=2;" edge="1" parent="1">
          <mxGeometry width="50" height="50" relative="1" as="geometry">
            <mxPoint x="250" y="477.75" as="sourcePoint" />
            <mxPoint x="150" y="320" as="targetPoint" />
            <Array as="points">
              <mxPoint x="150" y="477.5" />
            </Array>
          </mxGeometry>
        </mxCell>
        <mxCell id="2vzTiyGk3TncGAkoDQ5b-29" value="" style="endArrow=none;html=1;rounded=0;strokeWidth=2;" edge="1" parent="1">
          <mxGeometry width="50" height="50" relative="1" as="geometry">
            <mxPoint x="380" y="525" as="sourcePoint" />
            <mxPoint x="275" y="496" as="targetPoint" />
            <Array as="points">
              <mxPoint x="275" y="524.75" />
            </Array>
          </mxGeometry>
        </mxCell>
        <mxCell id="2vzTiyGk3TncGAkoDQ5b-33" value="" style="html=1;verticalLabelPosition=bottom;align=center;labelBackgroundColor=#ffffff;verticalAlign=top;strokeWidth=2;shadow=0;dashed=0;shape=mxgraph.ios7.icons.folder;strokeColor=#010203;" vertex="1" parent="1">
          <mxGeometry x="396" y="510" width="30" height="19.5" as="geometry" />
        </mxCell>
        <mxCell id="2vzTiyGk3TncGAkoDQ5b-34" value="" style="endArrow=none;html=1;rounded=0;strokeWidth=2;" edge="1" parent="1">
          <mxGeometry width="50" height="50" relative="1" as="geometry">
            <mxPoint x="519" y="569" as="sourcePoint" />
            <mxPoint x="414" y="540" as="targetPoint" />
            <Array as="points">
              <mxPoint x="414" y="568.75" />
            </Array>
          </mxGeometry>
        </mxCell>
        <mxCell id="2vzTiyGk3TncGAkoDQ5b-35" value="suite" style="text;html=1;align=left;verticalAlign=middle;resizable=0;points=[];autosize=1;strokeColor=none;fillColor=none;fontSize=14;" vertex="1" parent="1">
          <mxGeometry x="444" y="504.75" width="50" height="30" as="geometry" />
        </mxCell>
        <mxCell id="2vzTiyGk3TncGAkoDQ5b-36" value="" style="html=1;verticalLabelPosition=bottom;align=center;labelBackgroundColor=#ffffff;verticalAlign=top;strokeWidth=2;shadow=0;dashed=0;shape=mxgraph.ios7.icons.folder;strokeColor=#010203;" vertex="1" parent="1">
          <mxGeometry x="530" y="557.25" width="30" height="19.5" as="geometry" />
        </mxCell>
        <mxCell id="2vzTiyGk3TncGAkoDQ5b-38" value="generators" style="text;html=1;align=left;verticalAlign=middle;resizable=0;points=[];autosize=1;strokeColor=none;fillColor=none;fontSize=14;" vertex="1" parent="1">
          <mxGeometry x="578" y="552" width="90" height="30" as="geometry" />
        </mxCell>
        <mxCell id="2vzTiyGk3TncGAkoDQ5b-47" value="" style="endArrow=none;html=1;rounded=0;strokeWidth=2;" edge="1" parent="1">
          <mxGeometry width="50" height="50" relative="1" as="geometry">
            <mxPoint x="650" y="619" as="sourcePoint" />
            <mxPoint x="545" y="590" as="targetPoint" />
            <Array as="points">
              <mxPoint x="545" y="618.75" />
            </Array>
          </mxGeometry>
        </mxCell>
        <mxCell id="2vzTiyGk3TncGAkoDQ5b-48" value="" style="whiteSpace=wrap;html=1;shape=mxgraph.basic.document;strokeWidth=2;gradientColor=none;" vertex="1" parent="1">
          <mxGeometry x="670" y="605" width="22" height="25" as="geometry" />
        </mxCell>
        <mxCell id="2vzTiyGk3TncGAkoDQ5b-49" value="withFieldGenerator.test.ts" style="text;html=1;align=left;verticalAlign=middle;resizable=0;points=[];autosize=1;strokeColor=none;fillColor=none;fontSize=14;" vertex="1" parent="1">
          <mxGeometry x="700" y="600" width="180" height="30" as="geometry" />
        </mxCell>
        <mxCell id="2vzTiyGk3TncGAkoDQ5b-50" value="" style="endArrow=none;html=1;rounded=0;strokeWidth=2;" edge="1" parent="1">
          <mxGeometry width="50" height="50" relative="1" as="geometry">
            <mxPoint x="650" y="660" as="sourcePoint" />
            <mxPoint x="545" y="619" as="targetPoint" />
            <Array as="points">
              <mxPoint x="545" y="660" />
            </Array>
          </mxGeometry>
        </mxCell>
        <mxCell id="2vzTiyGk3TncGAkoDQ5b-51" value="" style="endArrow=none;html=1;rounded=0;strokeWidth=2;" edge="1" parent="1">
          <mxGeometry width="50" height="50" relative="1" as="geometry">
            <mxPoint x="275" y="552" as="sourcePoint" />
            <mxPoint x="275" y="523" as="targetPoint" />
            <Array as="points">
              <mxPoint x="275" y="551.75" />
            </Array>
          </mxGeometry>
        </mxCell>
        <mxCell id="2vzTiyGk3TncGAkoDQ5b-52" value="&lt;font style=&quot;font-size: 24px;&quot;&gt;...&lt;/font&gt;" style="text;html=1;align=center;verticalAlign=middle;resizable=0;points=[];autosize=1;strokeColor=none;fillColor=none;" vertex="1" parent="1">
          <mxGeometry x="255" y="541.75" width="40" height="40" as="geometry" />
        </mxCell>
        <mxCell id="2vzTiyGk3TncGAkoDQ5b-55" value="" style="endArrow=none;html=1;rounded=0;strokeWidth=2;" edge="1" parent="1">
          <mxGeometry width="50" height="50" relative="1" as="geometry">
            <mxPoint x="413.86" y="586.25" as="sourcePoint" />
            <mxPoint x="413.86" y="557.25" as="targetPoint" />
            <Array as="points">
              <mxPoint x="413.86" y="586" />
            </Array>
          </mxGeometry>
        </mxCell>
        <mxCell id="2vzTiyGk3TncGAkoDQ5b-56" value="&lt;font style=&quot;font-size: 24px;&quot;&gt;...&lt;/font&gt;" style="text;html=1;align=center;verticalAlign=middle;resizable=0;points=[];autosize=1;strokeColor=none;fillColor=none;" vertex="1" parent="1">
          <mxGeometry x="660" y="630" width="40" height="40" as="geometry" />
        </mxCell>
        <mxCell id="2vzTiyGk3TncGAkoDQ5b-57" value="&lt;font style=&quot;font-size: 24px;&quot;&gt;...&lt;/font&gt;" style="text;html=1;align=center;verticalAlign=middle;resizable=0;points=[];autosize=1;strokeColor=none;fillColor=none;" vertex="1" parent="1">
          <mxGeometry x="393" y="568.12" width="40" height="40" as="geometry" />
        </mxCell>
        <mxCell id="2vzTiyGk3TncGAkoDQ5b-58" value="" style="endArrow=none;html=1;rounded=0;strokeWidth=2;" edge="1" parent="1">
          <mxGeometry width="50" height="50" relative="1" as="geometry">
            <mxPoint x="250" y="622" as="sourcePoint" />
            <mxPoint x="150" y="402" as="targetPoint" />
            <Array as="points">
              <mxPoint x="150" y="622" />
            </Array>
          </mxGeometry>
        </mxCell>
        <mxCell id="2vzTiyGk3TncGAkoDQ5b-59" value="" style="whiteSpace=wrap;html=1;shape=mxgraph.basic.document;strokeWidth=2;gradientColor=none;" vertex="1" parent="1">
          <mxGeometry x="266" y="608.12" width="22" height="25" as="geometry" />
        </mxCell>
        <mxCell id="2vzTiyGk3TncGAkoDQ5b-60" value="extension.ts" style="text;html=1;align=left;verticalAlign=middle;resizable=0;points=[];autosize=1;strokeColor=none;fillColor=none;fontSize=14;" vertex="1" parent="1">
          <mxGeometry x="296" y="608.12" width="100" height="30" as="geometry" />
        </mxCell>
        <mxCell id="2vzTiyGk3TncGAkoDQ5b-63" value="" style="endArrow=none;html=1;rounded=0;strokeWidth=2;" edge="1" parent="1">
          <mxGeometry width="50" height="50" relative="1" as="geometry">
            <mxPoint x="150" y="652.12" as="sourcePoint" />
            <mxPoint x="150" y="623.12" as="targetPoint" />
            <Array as="points">
              <mxPoint x="150" y="651.87" />
            </Array>
          </mxGeometry>
        </mxCell>
        <mxCell id="2vzTiyGk3TncGAkoDQ5b-64" value="&lt;font style=&quot;font-size: 24px;&quot;&gt;...&lt;/font&gt;" style="text;html=1;align=center;verticalAlign=middle;resizable=0;points=[];autosize=1;strokeColor=none;fillColor=none;" vertex="1" parent="1">
          <mxGeometry x="130" y="638.12" width="40" height="40" as="geometry" />
        </mxCell>
      </root>
    </mxGraphModel>
  </diagram>
</mxfile>
